<svg id="visual" viewBox="0 0 1920 1080" width="1920" height="1080" xmlns="http://www.w3.org/2000/svg" xmlns:xlink="http://www.w3.org/1999/xlink" version="1.1"><rect x="0" y="0" width="1920" height="1080" fill="#000509"></rect><path d="M0 661L35.5 665.2C71 669.3 142 677.7 213.2 658.8C284.3 640 355.7 594 426.8 597.8C498 601.7 569 655.3 640 655.8C711 656.3 782 603.7 853.2 588.3C924.3 573 995.7 595 1066.8 599.8C1138 604.7 1209 592.3 1280 587C1351 581.7 1422 583.3 1493.2 599.3C1564.3 615.3 1635.7 645.7 1706.8 642C1778 638.3 1849 600.7 1884.5 581.8L1920 563L1920 1081L1884.5 1081C1849 1081 1778 1081 1706.8 1081C1635.7 1081 1564.3 1081 1493.2 1081C1422 1081 1351 1081 1280 1081C1209 1081 1138 1081 1066.8 1081C995.7 1081 924.3 1081 853.2 1081C782 1081 711 1081 640 1081C569 1081 498 1081 426.8 1081C355.7 1081 284.3 1081 213.2 1081C142 1081 71 1081 35.5 1081L0 1081Z" fill="#fa7268"></path><path d="M0 729L35.5 728.5C71 728 142 727 213.2 711C284.3 695 355.7 664 426.8 664C498 664 569 695 640 698.3C711 701.7 782 677.3 853.2 669C924.3 660.7 995.7 668.3 1066.8 654.3C1138 640.3 1209 604.7 1280 599.2C1351 593.7 1422 618.3 1493.2 638.5C1564.3 658.7 1635.7 674.3 1706.8 672.2C1778 670 1849 650 1884.5 640L1920 630L1920 1081L1884.5 1081C1849 1081 1778 1081 1706.8 1081C1635.7 1081 1564.3 1081 1493.2 1081C1422 1081 1351 1081 1280 1081C1209 1081 1138 1081 1066.8 1081C995.7 1081 924.3 1081 853.2 1081C782 1081 711 1081 640 1081C569 1081 498 1081 426.8 1081C355.7 1081 284.3 1081 213.2 1081C142 1081 71 1081 35.5 1081L0 1081Z" fill="#f66b68"></path><path d="M0 704L35.5 706C71 708 142 712 213.2 708.2C284.3 704.3 355.7 692.7 426.8 693.3C498 694 569 707 640 705.5C711 704 782 688 853.2 682.8C924.3 677.7 995.7 683.3 1066.8 680.8C1138 678.3 1209 667.7 1280 680.3C1351 693 1422 729 1493.2 735.5C1564.3 742 1635.7 719 1706.8 696.8C1778 674.7 1849 653.3 1884.5 642.7L1920 632L1920 1081L1884.5 1081C1849 1081 1778 1081 1706.8 1081C1635.7 1081 1564.3 1081 1493.2 1081C1422 1081 1351 1081 1280 1081C1209 1081 1138 1081 1066.8 1081C995.7 1081 924.3 1081 853.2 1081C782 1081 711 1081 640 1081C569 1081 498 1081 426.8 1081C355.7 1081 284.3 1081 213.2 1081C142 1081 71 1081 35.5 1081L0 1081Z" fill="#f26467"></path><path d="M0 780L35.5 763.7C71 747.3 142 714.7 213.2 710.8C284.3 707 355.7 732 426.8 737.7C498 743.3 569 729.7 640 722.5C711 715.3 782 714.7 853.2 710C924.3 705.3 995.7 696.7 1066.8 708.7C1138 720.7 1209 753.3 1280 758.2C1351 763 1422 740 1493.2 737.2C1564.3 734.3 1635.7 751.7 1706.8 755.8C1778 760 1849 751 1884.5 746.5L1920 742L1920 1081L1884.5 1081C1849 1081 1778 1081 1706.8 1081C1635.7 1081 1564.3 1081 1493.2 1081C1422 1081 1351 1081 1280 1081C1209 1081 1138 1081 1066.8 1081C995.7 1081 924.3 1081 853.2 1081C782 1081 711 1081 640 1081C569 1081 498 1081 426.8 1081C355.7 1081 284.3 1081 213.2 1081C142 1081 71 1081 35.5 1081L0 1081Z" fill="#ee5d67"></path><path d="M0 813L35.5 816.5C71 820 142 827 213.2 817.3C284.3 807.7 355.7 781.3 426.8 765C498 748.7 569 742.3 640 749.8C711 757.3 782 778.7 853.2 779.3C924.3 780 995.7 760 1066.8 757.3C1138 754.7 1209 769.3 1280 768.5C1351 767.7 1422 751.3 1493.2 743C1564.3 734.7 1635.7 734.3 1706.8 730C1778 725.7 1849 717.3 1884.5 713.2L1920 709L1920 1081L1884.5 1081C1849 1081 1778 1081 1706.8 1081C1635.7 1081 1564.3 1081 1493.2 1081C1422 1081 1351 1081 1280 1081C1209 1081 1138 1081 1066.8 1081C995.7 1081 924.3 1081 853.2 1081C782 1081 711 1081 640 1081C569 1081 498 1081 426.8 1081C355.7 1081 284.3 1081 213.2 1081C142 1081 71 1081 35.5 1081L0 1081Z" fill="#ea5667"></path><path d="M0 838L35.5 823.3C71 808.7 142 779.3 213.2 764C284.3 748.7 355.7 747.3 426.8 749.3C498 751.3 569 756.7 640 771.5C711 786.3 782 810.7 853.2 819.3C924.3 828 995.7 821 1066.8 820.7C1138 820.3 1209 826.7 1280 817.7C1351 808.7 1422 784.3 1493.2 775.5C1564.3 766.7 1635.7 773.3 1706.8 785.3C1778 797.3 1849 814.7 1884.5 823.3L1920 832L1920 1081L1884.5 1081C1849 1081 1778 1081 1706.8 1081C1635.7 1081 1564.3 1081 1493.2 1081C1422 1081 1351 1081 1280 1081C1209 1081 1138 1081 1066.8 1081C995.7 1081 924.3 1081 853.2 1081C782 1081 711 1081 640 1081C569 1081 498 1081 426.8 1081C355.7 1081 284.3 1081 213.2 1081C142 1081 71 1081 35.5 1081L0 1081Z" fill="#e54f67"></path><path d="M0 859L35.5 863.7C71 868.3 142 877.7 213.2 872C284.3 866.3 355.7 845.7 426.8 835.3C498 825 569 825 640 821.3C711 817.7 782 810.3 853.2 804.8C924.3 799.3 995.7 795.7 1066.8 804.2C1138 812.7 1209 833.3 1280 834C1351 834.7 1422 815.3 1493.2 812.2C1564.3 809 1635.7 822 1706.8 829.5C1778 837 1849 839 1884.5 840L1920 841L1920 1081L1884.5 1081C1849 1081 1778 1081 1706.8 1081C1635.7 1081 1564.3 1081 1493.2 1081C1422 1081 1351 1081 1280 1081C1209 1081 1138 1081 1066.8 1081C995.7 1081 924.3 1081 853.2 1081C782 1081 711 1081 640 1081C569 1081 498 1081 426.8 1081C355.7 1081 284.3 1081 213.2 1081C142 1081 71 1081 35.5 1081L0 1081Z" fill="#e14867"></path><path d="M0 865L35.5 872.8C71 880.7 142 896.3 213.2 901.5C284.3 906.7 355.7 901.3 426.8 897.5C498 893.7 569 891.3 640 890.8C711 890.3 782 891.7 853.2 890.7C924.3 889.7 995.7 886.3 1066.8 889C1138 891.7 1209 900.3 1280 894.2C1351 888 1422 867 1493.2 858.8C1564.3 850.7 1635.7 855.3 1706.8 861.2C1778 867 1849 874 1884.5 877.5L1920 881L1920 1081L1884.5 1081C1849 1081 1778 1081 1706.8 1081C1635.7 1081 1564.3 1081 1493.2 1081C1422 1081 1351 1081 1280 1081C1209 1081 1138 1081 1066.8 1081C995.7 1081 924.3 1081 853.2 1081C782 1081 711 1081 640 1081C569 1081 498 1081 426.8 1081C355.7 1081 284.3 1081 213.2 1081C142 1081 71 1081 35.5 1081L0 1081Z" fill="#dc4167"></path><path d="M0 959L35.5 958.5C71 958 142 957 213.2 946.8C284.3 936.7 355.7 917.3 426.8 915.8C498 914.3 569 930.7 640 930.7C711 930.7 782 914.3 853.2 904.3C924.3 894.3 995.7 890.7 1066.8 889C1138 887.3 1209 887.7 1280 895C1351 902.3 1422 916.7 1493.2 928C1564.3 939.3 1635.7 947.7 1706.8 946.5C1778 945.3 1849 934.7 1884.5 929.3L1920 924L1920 1081L1884.5 1081C1849 1081 1778 1081 1706.8 1081C1635.7 1081 1564.3 1081 1493.2 1081C1422 1081 1351 1081 1280 1081C1209 1081 1138 1081 1066.8 1081C995.7 1081 924.3 1081 853.2 1081C782 1081 711 1081 640 1081C569 1081 498 1081 426.8 1081C355.7 1081 284.3 1081 213.2 1081C142 1081 71 1081 35.5 1081L0 1081Z" fill="#d73a67"></path><path d="M0 929L35.5 930.8C71 932.7 142 936.3 213.2 943.2C284.3 950 355.7 960 426.8 961.3C498 962.7 569 955.3 640 947C711 938.7 782 929.3 853.2 925C924.3 920.7 995.7 921.3 1066.8 930C1138 938.7 1209 955.3 1280 954.8C1351 954.3 1422 936.7 1493.2 938C1564.3 939.3 1635.7 959.7 1706.8 969.2C1778 978.7 1849 977.3 1884.5 976.7L1920 976L1920 1081L1884.5 1081C1849 1081 1778 1081 1706.8 1081C1635.7 1081 1564.3 1081 1493.2 1081C1422 1081 1351 1081 1280 1081C1209 1081 1138 1081 1066.8 1081C995.7 1081 924.3 1081 853.2 1081C782 1081 711 1081 640 1081C569 1081 498 1081 426.8 1081C355.7 1081 284.3 1081 213.2 1081C142 1081 71 1081 35.5 1081L0 1081Z" fill="#d13367"></path><path d="M0 990L35.5 992C71 994 142 998 213.2 999.3C284.3 1000.7 355.7 999.3 426.8 997.8C498 996.3 569 994.7 640 998.7C711 1002.7 782 1012.3 853.2 1015.5C924.3 1018.7 995.7 1015.3 1066.8 1012.7C1138 1010 1209 1008 1280 1007.5C1351 1007 1422 1008 1493.2 1009.5C1564.3 1011 1635.7 1013 1706.8 1010.5C1778 1008 1849 1001 1884.5 997.5L1920 994L1920 1081L1884.5 1081C1849 1081 1778 1081 1706.8 1081C1635.7 1081 1564.3 1081 1493.2 1081C1422 1081 1351 1081 1280 1081C1209 1081 1138 1081 1066.8 1081C995.7 1081 924.3 1081 853.2 1081C782 1081 711 1081 640 1081C569 1081 498 1081 426.8 1081C355.7 1081 284.3 1081 213.2 1081C142 1081 71 1081 35.5 1081L0 1081Z" fill="#cc2b68"></path><path d="M0 1020L35.5 1017.8C71 1015.7 142 1011.3 213.2 1009.7C284.3 1008 355.7 1009 426.8 1016.2C498 1023.3 569 1036.7 640 1041C711 1045.3 782 1040.7 853.2 1040C924.3 1039.3 995.7 1042.7 1066.8 1040C1138 1037.3 1209 1028.7 1280 1026.2C1351 1023.7 1422 1027.3 1493.2 1028.2C1564.3 1029 1635.7 1027 1706.8 1028.5C1778 1030 1849 1035 1884.5 1037.5L1920 1040L1920 1081L1884.5 1081C1849 1081 1778 1081 1706.8 1081C1635.7 1081 1564.3 1081 1493.2 1081C1422 1081 1351 1081 1280 1081C1209 1081 1138 1081 1066.8 1081C995.7 1081 924.3 1081 853.2 1081C782 1081 711 1081 640 1081C569 1081 498 1081 426.8 1081C355.7 1081 284.3 1081 213.2 1081C142 1081 71 1081 35.5 1081L0 1081Z" fill="#c62368"></path></svg>